<?xml version="1.0" standalone="no"?>
<!DOCTYPE svg PUBLIC "-//W3C//DTD SVG 20010904//EN"
 "http://www.w3.org/TR/2001/REC-SVG-20010904/DTD/svg10.dtd">
<svg version="1.0" xmlns="http://www.w3.org/2000/svg"
 width="512.000000pt" height="512.000000pt" viewBox="0 0 512.000000 512.000000"
 preserveAspectRatio="xMidYMid meet">
<metadata>
Created by potrace 1.16, written by Peter Selinger 2001-2019
</metadata>
<g transform="translate(0.000000,512.000000) scale(0.100000,-0.100000)"
fill="#000000" stroke="none">
<path d="M2275 4694 c-327 -248 -408 -297 -590 -361 -156 -54 -172 -55 -623
-60 l-423 -5 4 -1151 3 -1152 23 -100 c46 -206 116 -372 229 -545 68 -104 276
-314 382 -386 87 -59 1262 -714 1281 -714 7 0 76 36 153 79 78 43 161 90 186
104 25 13 189 104 365 202 176 98 340 189 365 203 183 101 279 169 391 277
221 213 358 461 430 780 l23 100 3 1152 4 1152 -423 3 c-419 4 -424 4 -519 30
-235 64 -325 115 -692 390 -153 114 -284 208 -290 207 -7 0 -133 -93 -282
-205z m428 -664 c332 -103 446 -518 213 -777 -94 -104 -208 -155 -351 -156
-406 -4 -631 458 -378 778 116 147 332 212 516 155z m102 -1165 c289 -43 508
-139 662 -291 90 -87 134 -164 153 -263 6 -32 10 -251 10 -541 l0 -487 -47
-44 c-103 -96 -344 -269 -375 -269 -4 0 -8 124 -8 276 0 190 -4 290 -12 318
-16 53 -81 118 -134 134 -54 16 -940 17 -997 1 -46 -12 -100 -58 -120 -102 -9
-18 -16 -70 -18 -121 l-4 -90 77 -38 c181 -88 362 -134 586 -148 129 -8 152
-12 201 -37 67 -33 101 -79 101 -135 0 -83 -43 -134 -130 -158 -64 -17 -305
-15 -425 5 -295 47 -607 194 -797 374 l-38 35 0 487 c0 289 4 508 10 540 32
165 169 318 379 424 129 64 276 106 491 138 69 11 344 5 435 -8z"/>
<path d="M2443 2543 c-60 -21 -137 -94 -170 -161 -37 -75 -40 -191 -6 -264 52
-114 150 -180 275 -186 138 -7 246 56 305 176 24 48 28 70 28 137 0 67 -4 89
-28 137 -34 70 -107 137 -173 161 -60 21 -172 21 -231 0z"/>
</g>
</svg>
